<?xml version="1.0" standalone="no"?>
<!DOCTYPE svg PUBLIC "-//W3C//DTD SVG 20010904//EN"
 "http://www.w3.org/TR/2001/REC-SVG-20010904/DTD/svg10.dtd">
<svg version="1.0" xmlns="http://www.w3.org/2000/svg"
 width="300.000000pt" height="265.000000pt" viewBox="0 0 300.000000 265.000000"
 preserveAspectRatio="xMidYMid meet">

<g transform="translate(0.000000,265.000000) scale(0.100000,-0.100000)"
fill="#000000" stroke="none">
<path d="M449 2421 c-22 -124 20 -249 117 -346 110 -111 383 -212 699 -259
l80 -12 0 -186 0 -186 31 -38 c17 -21 50 -49 75 -62 37 -20 54 -23 111 -19 94
6 148 39 183 112 27 53 27 56 15 137 -6 46 -10 119 -8 163 l3 80 60 7 c172 19
488 110 605 175 78 44 176 140 210 208 20 41 26 68 28 145 2 56 -1 107 -8 125
l-12 30 -12 -36 c-52 -150 -267 -311 -566 -422 -118 -44 -197 -65 -325 -86
l-100 -17 -5 -223 c-5 -222 -5 -223 -30 -243 -28 -22 -72 -19 -102 8 -16 15
-18 40 -20 238 l-3 221 -60 7 c-253 31 -562 152 -745 289 -90 68 -141 127
-176 204 -14 30 -27 55 -29 55 -2 0 -9 -31 -16 -69z"/>
<path d="M510 2018 c0 -39 33 -118 65 -155 59 -69 150 -93 475 -128 275 -29
250 -29 250 0 0 20 -5 25 -24 25 -33 0 -309 64 -416 96 -107 32 -237 93 -301
140 -32 23 -49 31 -49 22z"/>
<path d="M2570 2014 c-23 -27 -142 -92 -235 -128 -96 -37 -280 -86 -433 -116
-52 -10 -96 -20 -98 -23 -11 -11 10 -37 31 -37 31 0 266 27 395 46 221 31 286
61 332 154 43 88 48 153 8 104z"/>
<path d="M630 1731 c0 -20 67 -97 100 -113 45 -23 104 -23 344 2 199 20 226
25 226 41 0 16 -17 18 -290 34 -234 14 -290 20 -362 41 -10 3 -18 1 -18 -5z"/>
<path d="M2410 1724 c-30 -8 -178 -21 -327 -31 -204 -12 -273 -20 -273 -29 0
-7 4 -15 9 -18 18 -12 419 -48 476 -43 34 2 75 12 93 21 43 22 114 119 85 115
-5 -1 -33 -7 -63 -15z"/>
<path d="M1185 1595 c-38 -7 -149 -24 -245 -39 -95 -15 -176 -29 -179 -31 -10
-10 44 -55 85 -71 42 -16 45 -16 146 15 221 68 293 97 296 120 4 24 1 24 -103
6z"/>
<path d="M1812 1588 c3 -19 27 -31 173 -81 206 -71 254 -76 318 -30 54 40 56
50 10 57 -338 52 -497 76 -500 76 -2 0 -3 -10 -1 -22z"/>
<path d="M1093 1456 c-100 -39 -185 -74 -189 -78 -4 -5 1 -17 12 -29 29 -32
139 -109 157 -109 8 0 61 41 116 91 l101 90 0 49 c0 27 -3 51 -7 53 -5 2 -90
-28 -190 -67z"/>
<path d="M1818 1478 l-3 -51 100 -93 c55 -52 107 -94 116 -94 32 0 193 121
178 134 -5 4 -236 97 -326 131 l-61 23 -4 -50z"/>
<path d="M1205 1300 c-49 -49 -87 -92 -84 -94 27 -27 233 -99 316 -110 l42 -6
7 47 c4 27 8 65 8 86 1 37 -1 39 -43 54 -54 18 -90 44 -116 83 -11 16 -25 30
-30 30 -6 0 -51 -40 -100 -90z"/>
<path d="M1757 1345 c-25 -29 -54 -50 -90 -63 l-52 -20 3 -79 c2 -43 7 -82 12
-87 14 -14 178 28 275 70 47 20 85 39 85 43 0 6 -186 181 -192 181 -2 -1 -20
-20 -41 -45z"/>
<path d="M1521 1138 c-10 -110 -10 -130 6 -188 10 -36 23 -64 28 -63 29 5 42
140 29 296 -6 71 -9 77 -29 77 -21 0 -23 -6 -34 -122z"/>
<path d="M613 732 l-33 -3 0 -220 0 -220 37 3 36 3 -2 150 c-1 82 0 148 2 145
3 -3 42 -66 87 -140 46 -74 88 -140 94 -146 6 -7 25 -10 44 -7 l32 5 0 214 0
214 -35 0 -34 0 -3 -147 -3 -146 -89 147 c-49 81 -92 148 -95 149 -3 1 -21 1
-38 -1z"/>
<path d="M1525 659 c-26 -43 -49 -79 -50 -79 -1 0 -23 34 -49 75 -26 41 -53
75 -59 75 -7 0 -25 -11 -41 -24 l-29 -23 66 -85 66 -84 -60 -93 c-32 -50 -59
-96 -59 -100 0 -9 59 -36 64 -30 1 2 24 39 50 82 27 42 49 77 51 77 2 0 26
-36 54 -81 l51 -80 40 22 c22 13 36 27 33 33 -4 6 -33 46 -65 89 -32 43 -58
83 -58 88 0 4 24 46 54 91 30 46 52 86 49 91 -2 4 -17 14 -32 21 l-28 15 -48
-80z"/>
<path d="M2025 734 c-5 -1 -22 -5 -37 -8 l-28 -6 0 -156 c0 -151 -1 -156 -25
-179 -32 -33 -78 -33 -111 0 -25 25 -25 26 -22 186 l3 161 -43 -5 c-24 -2 -44
-6 -45 -8 -1 -2 0 -84 3 -181 l5 -178 31 -31 c71 -71 212 -47 261 44 14 25 18
64 21 167 4 154 1 198 -13 194z"/>
<path d="M2654 733 l-42 -4 -31 -102 c-18 -56 -49 -152 -71 -213 l-38 -112 30
-6 c17 -3 34 -6 39 -6 5 0 16 27 26 60 l16 60 78 0 78 0 11 -42 c22 -85 18
-80 63 -73 23 4 43 8 44 9 2 2 -13 52 -32 112 -19 59 -49 157 -67 216 -23 81
-35 108 -47 106 -9 -1 -35 -3 -57 -5z m41 -162 c9 -36 19 -71 22 -78 4 -10 -9
-13 -51 -13 -31 0 -56 3 -56 6 0 10 41 148 47 157 9 15 19 -6 38 -72z"/>
<path d="M1024 510 l1 -220 111 0 c118 0 124 2 124 51 0 17 -8 19 -74 19 -82
0 -86 3 -86 82 l0 37 63 3 c62 3 62 3 65 36 l3 32 -60 0 -61 0 0 60 0 60 69 0
c54 0 70 4 75 16 16 42 11 44 -113 44 l-119 0 2 -220z"/>
<path d="M2144 510 l1 -221 39 3 39 3 -2 83 c-2 82 -2 82 23 82 21 0 33 -13
70 -77 25 -43 47 -82 49 -87 4 -11 64 11 73 25 3 5 -18 43 -47 84 l-53 75 34
35 c27 28 34 44 38 88 4 49 1 57 -26 88 l-30 34 -105 3 -105 4 2 -222z m164
144 c27 -19 30 -72 5 -103 -10 -12 -35 -24 -55 -28 l-38 -6 0 77 0 76 33 0
c18 0 43 -7 55 -16z"/>
</g>
</svg>
